<svg version="1.2" xmlns="http://www.w3.org/2000/svg" viewBox="0 0 320 100" width="320" height="100"><style>.a{fill:#461993}</style><path  d="m42.7 71.3h10.8l7-23.2h0.4l7 23.2h10.8l12.2-41.5h-12.5l-5.7 25.6h-0.3l-6.8-25.6h-9.8l-6.8 25.5h-0.3l-5.6-25.5h-12.6zm49.2 0h11.2v-16.2c0-3.5 2.4-5.9 5.7-5.9 1.2 0 3 0.2 4.1 0.6v-9.6c-0.9-0.2-1.8-0.4-2.8-0.4-3.3 0-5.9 2-7 6.3h-0.4v-5.9h-10.8zm23.8 0h11.2v-31.1h-11.2zm5.6-34.3c3 0 5.5-2.3 5.5-5.1 0-2.8-2.5-5.1-5.5-5.1-3 0-5.5 2.3-5.5 5.1 0 2.8 2.5 5.1 5.5 5.1zm29 3.2h-5.4v-7.4h-11.2v7.4h-3.9v8.1h3.9v14.1c0 6.5 4 9.8 11.7 9.4 2.5-0.2 4.4-0.7 5.4-1l-1.6-7.8c-0.4 0.1-1.5 0.3-2.2 0.3-1.4 0-2.1-0.7-2.1-2v-13h5.4zm18.2 31.7c8.6 0 14.2-4.1 15.2-10.6h-10.2c-0.6 1.7-2.5 2.7-4.8 2.7-3.3 0-5.2-2.1-5.2-5.1v-0.5h20.2v-2.6c0-9.9-6-16-15.4-16-9.7 0-15.8 6.4-15.8 16.1 0 10 6 16 16 16zm-5-19.7c0-2.7 2.3-4.5 5-4.5 2.8 0 4.9 1.8 4.9 4.5z"/><path class="a" d="m198.5 29.8h-11.2v41.5h11.2zm23.2 10.3h-5.3v-7.4h-11.2v7.4h-4v8.1h4v14.1c-0.1 6.5 3.9 9.8 11.7 9.4 2.5-0.2 4.4-0.7 5.4-1l-1.6-7.9c-0.5 0.1-1.6 0.4-2.2 0.4-1.5 0-2.1-0.7-2.1-2v-13h5.3zm28.1-10.3v25.5c0 3.9-2.8 6.7-6.7 6.7-3.8 0-6.6-2.8-6.6-6.7v-25.5h-11.3v26.5c0 9.5 7.2 15.4 17.9 15.4 10.7 0 17.9-5.9 17.9-15.4v-26.5zm15.9 53.1h11.2v-16.8h0.2c1.3 3.2 4.3 5.5 8.6 5.5 6.7 0 12.3-5.2 12.3-15.9 0-11.3-6-16-12.2-16-4.6 0-7.5 2.7-8.7 5.9h-0.3v-5.5h-11.1zm11-27.2c0-4.6 1.8-7.3 4.9-7.3 3.1 0 4.9 2.7 4.9 7.3 0 4.6-1.8 7.4-4.9 7.4-3.1 0-4.9-2.8-4.9-7.4z"/></svg>